<svg width="201" height="50" viewBox="0 0 201 50" fill="none" xmlns="http://www.w3.org/2000/svg">
<path d="M26.1895 49V25.192H14.4135V49H4.5575V25.192H0.1415V17H4.5575V14.44C4.5575 4.904 9.4855 0.743999 16.9735 0.743999C18.3175 0.743999 19.8535 0.871998 21.3895 1.128V9.576H18.6375C15.2455 9.576 14.4135 11.688 14.4135 14.44V17H36.1095V49H26.1895ZM31.1815 12.008C28.0455 12.008 25.5495 9.512 25.5495 6.376C25.5495 3.24 28.0455 0.807999 31.1815 0.807999C34.2535 0.807999 36.7495 3.24 36.7495 6.376C36.7495 9.512 34.2535 12.008 31.1815 12.008ZM56.515 49H46.659V25.192H40.579V17H46.659V7.08H56.515V17H62.595V25.192H56.515V49ZM87.4405 33.256H78.6085V49H68.2405V1.64H87.4405C97.1045 1.64 103.569 7.976 103.569 17.448C103.569 26.92 97.1045 33.256 87.4405 33.256ZM85.1365 10.856H78.6085V24.04H85.1365C90.1285 24.04 92.6245 21.864 92.6245 17.448C92.6245 13.032 90.1285 10.856 85.1365 10.856ZM117.314 49.832C110.53 49.832 106.306 45.864 106.306 39.592C106.306 33.704 110.466 30.056 118.146 29.48L127.106 28.776V28.264C127.106 25.128 125.186 23.464 121.666 23.464C117.506 23.464 115.266 25.064 115.266 27.944H107.074C107.074 20.712 113.026 15.976 122.178 15.976C131.458 15.976 136.706 21.16 136.706 30.312V49H128.002L127.362 44.776C126.338 47.72 122.114 49.832 117.314 49.832ZM120.77 42.536C124.546 42.536 127.17 40.68 127.17 37.032V35.304L122.178 35.752C117.89 36.136 116.354 37.096 116.354 39.144C116.354 41.448 117.762 42.536 120.77 42.536ZM141.471 38.888H150.815C150.943 41.128 152.607 42.472 155.615 42.472C158.687 42.472 160.095 41.384 160.095 39.72C160.095 38.76 159.583 37.736 157.215 37.224L151.327 35.944C145.439 34.664 142.559 32.104 142.559 26.472C142.559 19.816 148.255 15.976 155.935 15.976C163.359 15.976 168.543 20.328 168.543 26.792H159.199C159.199 24.616 157.855 23.144 155.487 23.144C153.247 23.144 151.839 24.296 151.839 26.024C151.839 27.496 153.055 28.328 155.295 28.84L161.247 30.12C166.495 31.272 169.375 33.704 169.375 38.824C169.375 45.672 163.551 49.832 155.231 49.832C146.783 49.832 141.471 45.352 141.471 38.888ZM172.221 38.888H181.565C181.693 41.128 183.357 42.472 186.365 42.472C189.437 42.472 190.845 41.384 190.845 39.72C190.845 38.76 190.333 37.736 187.965 37.224L182.077 35.944C176.189 34.664 173.309 32.104 173.309 26.472C173.309 19.816 179.005 15.976 186.685 15.976C194.109 15.976 199.293 20.328 199.293 26.792H189.949C189.949 24.616 188.605 23.144 186.237 23.144C183.997 23.144 182.589 24.296 182.589 26.024C182.589 27.496 183.805 28.328 186.045 28.84L191.997 30.12C197.245 31.272 200.125 33.704 200.125 38.824C200.125 45.672 194.301 49.832 185.981 49.832C177.533 49.832 172.221 45.352 172.221 38.888Z" fill="#00D956"/>
</svg>
