<?xml version="1.0" encoding="UTF-8"?>
<svg id="_圖層_2" data-name="圖層_2" xmlns="http://www.w3.org/2000/svg" viewBox="0 0 423.82 93.97">
  <defs>
    <style>
      .cls-1 {
        fill: #00d856;
      }
    </style>
  </defs>
  <g id="_圖層_1-2" data-name="圖層_1">
    <g>
      <circle class="cls-1" cx="39.21" cy="15.91" r="15.91"/>
      <g>
        <path d="M149.96,44.67h-9.33l1.36-6.67h9.4l.57-2.73c1.72-8.18,6.38-12.12,16.64-12.12h27.62l-1.15,6.81h-25.75c-5.67,0-7.67.86-8.75,6.03l-.43,2.01h33.14l-8.97,42.39h-8.75l7.6-35.72h-24.46l-7.6,35.72h-8.75l7.6-35.72Z"/>
        <path d="M200.32,64.1l4.16-19.44h-8.82l1.51-6.67h8.75l1.94-9.25,9.4-2.87-2.58,12.12h16.79l-1.43,6.67h-16.71l-4.38,20.59c-1.43,6.67.14,8.97,6.53,8.97,2.37,0,3.95-.21,8.46-1l-1.58,7.1c-4.02.86-7.32,1.22-10.33,1.22-10.97,0-14.35-5.16-11.69-17.43Z"/>
        <path d="M239.12,28.74h27.54c12.91,0,19.3,6.96,16.64,19.3-2.22,10.33-10.26,16.35-21.66,16.35h-21.16l-3.37,16h-8.89l10.9-51.65ZM261.36,57c6.96,0,11.69-3.16,13.2-10.33,1.43-6.89-1.87-10.47-8.97-10.47h-19.08l-4.45,20.8h19.3Z"/>
        <path d="M308.98,43.59c-6.38,0-12.34,1.08-20.95,3.44l.07-6.81c8.97-2.44,15.21-3.51,22.45-3.51,13.92,0,20.44,6.31,17.93,18.22l-5.45,25.46h-8.68l1.15-5.38c-6.1,4.09-13.06,6.38-20.37,6.38-10.97,0-16.93-6.03-14.85-15.57,1.87-8.75,10.19-13.7,22.67-13.7,5.52,0,11.55.93,16.86,2.8l.29-1.51c1.51-7.1-2.22-9.83-11.12-9.83ZM298.8,74.72c5.88,0,12.41-2.44,18.08-6.17l1.65-7.53c-5.74-1.58-10.47-2.37-15.06-2.37-8.32,0-13.41,2.29-14.49,7.46-1.08,5.31,2.08,8.61,9.83,8.61Z"/>
        <path d="M330.36,66.83l8.75.07c.5,5.45,4.95,7.67,13.56,7.67,6.74,0,11.84-.57,12.7-4.88,1-4.73-4.45-6.31-15.28-7.89-12.05-1.87-17.93-6.38-16.14-14.49,1.51-7.17,9.25-10.62,21.73-10.62s20.52,4.59,20.95,13.41h-8.75c-.86-4.95-5.31-6.53-12.98-6.53-6.74,0-11.76.93-12.55,4.45-1.08,4.52,4.09,5.67,14.63,7.24,12.62,1.94,18.65,6.67,16.78,15.28-1.72,7.67-9.18,11.05-22.31,11.05s-20.95-5.24-21.09-14.78Z"/>
        <path d="M377.55,66.83l8.75.07c.5,5.45,4.95,7.67,13.56,7.67,6.74,0,11.83-.57,12.7-4.88,1-4.73-4.45-6.31-15.28-7.89-12.05-1.87-17.93-6.38-16.14-14.49,1.51-7.17,9.25-10.62,21.74-10.62s20.51,4.59,20.95,13.41h-8.75c-.86-4.95-5.31-6.53-12.98-6.53-6.74,0-11.76.93-12.55,4.45-1.08,4.52,4.09,5.67,14.63,7.24,12.62,1.94,18.65,6.67,16.79,15.28-1.72,7.67-9.18,11.05-22.31,11.05s-20.95-5.24-21.09-14.78Z"/>
      </g>
      <g>
        <path class="cls-1" d="M58.43,3.6c2.63,14.02,14.91,24.64,29.69,24.64h28.74c-2.58-13.74-14.43-24.2-28.81-24.62v-.02s-.86,0-.86,0h-28.75Z"/>
        <path class="cls-1" d="M36.26,38.56c-10.05,0-19,6.34-22.34,15.82l-3.1,8.81L0,93.97h18.25c7.69,0,14.54-4.85,17.09-12.11l6.57-18.67h45.26c14.78,0,27.07-10.62,29.69-24.63H36.26Z"/>
      </g>
    </g>
  </g>
</svg>