<svg width="25" height="20" viewBox="0 0 25 20" fill="none" xmlns="http://www.w3.org/2000/svg">
<path fill-rule="evenodd" clip-rule="evenodd" d="M12.404 0.00528336C10.4591 -0.0594855 8.49412 0.471132 6.79766 1.60352C4.8923 2.8767 3.56074 4.75682 2.94741 6.85862C2.77804 6.83794 2.57522 6.84706 2.33439 6.91518C1.43523 7.1703 0.758956 7.90708 0.454877 8.55599C0.0604868 9.40163 -0.105844 10.52 0.0696092 11.6746C0.243846 12.8256 0.730069 13.7743 1.33823 14.3633C1.94821 14.9526 2.63695 15.1442 3.32113 15.0003C4.33979 14.7829 4.84487 14.6202 4.70225 13.6712L4.01169 9.07079C4.15096 6.58099 5.43995 4.23715 7.59587 2.79582C10.4816 0.86826 14.2649 0.991716 17.0175 3.10476C18.9322 4.57285 20.044 6.77256 20.1723 9.08174L19.6894 12.2998C18.6123 15.2472 15.9422 17.2888 12.8525 17.5786H10.7951C10.2642 17.5786 9.83663 18.0062 9.83663 18.5365V19.0418C9.83663 19.5725 10.2642 20 10.7951 20H13.3892C13.9198 20 14.3455 19.5725 14.3455 19.0418V18.7776C16.6754 18.209 18.709 16.7771 20.0333 14.7802L20.8644 15.0006C21.5406 15.1761 22.2376 14.9526 22.8473 14.3636C23.4554 13.7743 23.9413 12.8259 24.1159 11.6749C24.2919 10.5203 24.1207 9.40376 23.7309 8.55629C23.3396 7.70882 22.7566 7.1706 22.0837 6.97751C21.8018 6.89632 21.4959 6.86652 21.2335 6.85862C20.6789 4.95812 19.5371 3.22974 17.8914 1.96781C16.2734 0.726255 14.3489 0.06914 12.404 0.00528336Z" fill="#404040"/>
<path fill-rule="evenodd" clip-rule="evenodd" d="M15.4403 8.28164C16.126 8.28164 16.6818 8.8375 16.6833 9.52502C16.6818 10.2107 16.126 10.7681 15.4403 10.7681C14.7527 10.7681 14.1954 10.2107 14.1954 9.52502C14.1954 8.8378 14.753 8.28164 15.4403 8.28164ZM12.0923 8.28164C12.7796 8.28164 13.3354 8.8375 13.3354 9.52502C13.3354 10.2107 12.7796 10.7681 12.0923 10.7681C11.4045 10.7681 10.8487 10.2107 10.8487 9.52502C10.8487 8.8378 11.4045 8.28164 12.0923 8.28164ZM8.74565 8.28164C9.43135 8.28164 9.98872 8.8375 9.98872 9.52502C9.98872 10.2107 9.43135 10.7681 8.74565 10.7681C8.05843 10.7681 7.50227 10.2107 7.50227 9.52502C7.50227 8.8378 8.05843 8.28164 8.74565 8.28164ZM12.0923 2.94141C8.44643 2.94141 5.50842 5.78272 5.50842 9.52502C5.50842 11.3224 6.18804 12.9109 7.29519 14.0765L6.90232 15.8377C6.77278 16.4173 7.17478 16.8071 7.69566 16.517L9.41554 15.5576C10.2329 15.9125 11.1369 16.1086 12.0923 16.1086C15.7395 16.1086 18.6757 13.2691 18.6757 9.52502C18.6757 5.78272 15.7395 2.94141 12.0923 2.94141Z" fill="#404040"/>
</svg>
